<svg xmlns="http://www.w3.org/2000/svg" viewBox="0 0 786 294.5"><defs><style>.cls-1{fill:#f37021;}</style></defs><g id="Layer_2" data-name="Layer 2"><g id="Layer_1-2" data-name="Layer 1"><path d="M293.68,204.84A88.86,88.86,0,0,1,266.06,209q-51.78,0-51.78-51.44,0-48.68,51.78-48.67A89.15,89.15,0,0,1,293.68,113h0a8.24,8.24,0,0,1-10.09,8,72.88,72.88,0,0,0-16.15-1.79q-40.4,0-40.39,38.31,0,41.08,40.39,41.08a73.48,73.48,0,0,0,16.15-1.79,8.23,8.23,0,0,1,10.09,8Z"/><path d="M304.24,186.41q0-22.29,29.42-22.3a130.77,130.77,0,0,1,18.91,1.38v-6.83q0-12.49-19.54-12.5a76.53,76.53,0,0,0-13.36,1.2,8.19,8.19,0,0,1-9.56-8.1h0A81.12,81.12,0,0,1,333,135.81q32.31,0,32.31,22.5v50h0a12.85,12.85,0,0,1-10.94-6.12l-.65-1.06a42,42,0,0,1-23.62,7.18Q304.24,208.3,304.24,186.41Zm29.42-11.94Q317,174.47,317,186.2t13.11,11.74q13.26,0,22.44-7V175.85A130.77,130.77,0,0,0,333.66,174.47Z"/><path d="M393.86,122.34v86h0a12.78,12.78,0,0,1-12.77-12.78v-86h0A12.77,12.77,0,0,1,393.86,122.34Z"/><path d="M439.5,135.81q30.93,0,30.93,30.58a74.2,74.2,0,0,1-.62,9.32H418.93q0,22.23,26,22.23a92.54,92.54,0,0,0,12.35-.78,8.46,8.46,0,0,1,9.6,8.37h0q-9.58,2.78-23.33,2.77-37.35,0-37.35-37.08Q406.16,135.81,439.5,135.81Zm-20.57,29.27h39.21Q457.74,146,439.5,146,420.18,146,418.93,165.08Z"/><path d="M482,195.52V135.81h0a11,11,0,0,1,10.69,8.37l.22.88q11.12-9.26,24.44-9.25,27.13,0,27.13,27v45.5h0a12.78,12.78,0,0,1-12.77-12.78V162.59q0-16.15-16.09-16.15-11,0-20.85,9.18V208.3h0A12.78,12.78,0,0,1,482,195.52Z"/><path class="cls-1" d="M618.47,204Q605.28,208.3,586,208.3q-32.38,0-32.38-37.7,0-34.8,34.38-34.79a46.06,46.06,0,0,1,17.75,3.45V109.57h0a12.77,12.77,0,0,1,12.77,12.77ZM605.7,150.58A40.18,40.18,0,0,0,588,146.85q-21.88,0-21.88,23.27,0,27.54,21.88,27.55A53.52,53.52,0,0,0,605.7,195Z"/><path class="cls-1" d="M630.07,186.41q0-22.29,29.41-22.3a130.91,130.91,0,0,1,18.92,1.38v-6.83q0-12.49-19.54-12.5a76.44,76.44,0,0,0-13.36,1.2,8.19,8.19,0,0,1-9.56-8.1h0a81.12,81.12,0,0,1,22.92-3.45q32.31,0,32.31,22.5v50h0a12.85,12.85,0,0,1-10.94-6.12l-.66-1.06A41.92,41.92,0,0,1,656,208.3Q630.07,208.3,630.07,186.41Zm29.41-11.94q-16.63,0-16.64,11.73T656,197.94q13.26,0,22.44-7V175.85A130.91,130.91,0,0,0,659.48,174.47Z"/><path class="cls-1" d="M724.73,172.05,697.6,135.81h0a29.62,29.62,0,0,1,23.73,11.88l10.79,14.42,10.78-14.42a29.66,29.66,0,0,1,23.74-11.88h0l-27.06,36.24,27.06,36.25h0a29.67,29.67,0,0,1-23.74-11.89L732.12,182l-10.79,14.42A29.63,29.63,0,0,1,697.6,208.3h0Z"/><path class="cls-1" d="M786,195.52V208.3H773.23V195.52Z"/><path d="M179.71,159.31c0,4.25-.19,8.46-.6,12.61A135.75,135.75,0,0,1,56.53,294.5V258.58a14.79,14.79,0,0,1,10.9-14.25,88.21,88.21,0,0,0,63.78-72.41h-35a15.64,15.64,0,0,0-13.71,8.33,43.92,43.92,0,1,1,0-41.88,15.65,15.65,0,0,0,13.7,8.34h35A88.21,88.21,0,0,0,67.43,74.29,14.8,14.8,0,0,1,56.53,60V24.11a135.76,135.76,0,0,1,122.58,122.6C179.52,150.86,179.71,155.07,179.71,159.31Z"/><circle class="cls-1" cx="156.16" cy="22.87" r="22.87"/></g></g></svg>